# xmcd
#
# Track frame offsets: 
#        150
#        21679
#        36800
#        52714
#        67775
#
# Disc length: 1182 seconds
#
# Revision: 1
# Processed by: cddbd v1.5.2PL0 Copyright (c) Steve Scherf et al.
# Submitted via: ExactAudioCopy v0.99pb4
#
DISCID=37049c05
DTITLE=At The Gates - To Drink From The Night Itself [CD2]
DYEAR=2018
DGENRE=Melodic Death Metal
TTITLE0=Daggers Of Black Haze (Featuring Rob Miller)
TTITLE1=The Chasm (Featuring Per Boder)
TTITLE2=A Labyrinth Of Tombs (Featuring Mikael Nox Pettersson)
TTITLE3=The Chasm (Demo Version)
TTITLE4=The Mirror Black (Featuring Rob Miller)
EXTD=
EXTT0=
EXTT1=
EXTT2=
EXTT3=
EXTT4=
PLAYORDER=
